# xmcd CD database file
#
# Track frame offsets:
#	150
#	20444
#	38798
#	53168
#	72525
#	106798
#	128969
#	145468
#	166650
#	183519
#	207699
#	222127
#	237828
#	262284
#	282238
#	304014
#
# Disc length: 4311 seconds
#
# Revision: 0
# Processed by: cddbd v1.5.2PL0 Copyright (c) Steve Scherf et al.
# Submitted via: CDex 1.51
#
DISCID=f510d510
DTITLE=Mojo Blues Band - Thirty Year Blues Affair - CD2
DYEAR=2007
DGENRE=Blues
TTITLE0=Money Talks
TTITLE1=Since You're Gone
TTITLE2=Afraid Of Living
TTITLE3=Chunk In Her Trunk
TTITLE4=Ridin' On A Riverboat
TTITLE5=Woman Enough For Me
TTITLE6=Have You Ever
TTITLE7=You Don't Love Me
TTITLE8=Trim, Tan and Terrific
TTITLE9=There Is Something On Your Mind
TTITLE10=Rubber Rabbit
TTITLE11=Jack The Wack
TTITLE12=Solitude
TTITLE13=Piggin' Out
TTITLE14=Pickpocket Blues
TTITLE15=BonusTrack
EXTD=YEAR: 2007
EXTT0=
EXTT1=
EXTT2=
EXTT3=
EXTT4=
EXTT5=
EXTT6=
EXTT7=
EXTT8=
EXTT9=
EXTT10=
EXTT11=
EXTT12=
EXTT13=
EXTT14=
EXTT15=
PLAYORDER=
